<svg width="111" height="111" viewBox="0 0 111 111" fill="none" xmlns="http://www.w3.org/2000/svg">
<rect x="-10.4856" y="76.9434" width="123.824" height="62.784" rx="31.392" transform="rotate(-45 -10.4856 76.9434)" stroke="#0404A0" stroke-width="3.488"/>
<rect x="-3.4103" y="77.2666" width="114.276" height="52.32" rx="26.16" transform="rotate(-45 -3.4103 77.2666)" stroke="#0404A0" stroke-width="1.744"/>
<path d="M24.1308 77.1034L25.9626 75.2717L32.9594 79.4329L32.9878 79.4045L27.4087 73.8255L28.7074 72.5268L38.0285 81.8479L36.5257 83.3508L27.9716 78.3014L27.9432 78.3298L34.7449 85.1315L33.4519 86.4246L24.1308 77.1034Z" fill="#0404A0"/>
<path d="M41.7588 77.1508C40.9694 77.1213 40.2022 76.7398 39.4572 75.9948L34.5606 71.0982C33.8156 70.3532 33.4283 69.5803 33.4045 68.7965C33.375 68.0071 33.7204 67.2523 34.435 66.5377C35.1495 65.8231 35.9044 65.4777 36.6938 65.5072C37.4833 65.5367 38.2505 65.9183 38.9955 66.6633L43.892 71.5599C44.637 72.3049 45.0243 73.0778 45.0481 73.8616C45.0776 74.651 44.7322 75.4058 44.0177 76.1204C43.3031 76.835 42.5483 77.1803 41.7588 77.1508ZM42.5255 73.1084L37.4413 68.0241C36.8271 67.4099 36.2705 67.3524 35.7657 67.8571C35.261 68.3618 35.3186 68.9185 35.9328 69.5327L41.017 74.6169C41.6312 75.2311 42.1878 75.2887 42.6926 74.784C43.1973 74.2792 43.1397 73.7226 42.5255 73.1084Z" fill="#0404A0"/>
<path d="M49.7326 69.2112C48.9658 69.1817 48.2213 68.8002 47.4934 68.0723L42.4888 63.0676C41.7608 62.3397 41.3793 61.5952 41.3498 60.8285C41.3204 60.0618 41.6544 59.3296 42.3519 58.6321C43.0495 57.9345 43.7816 57.6005 44.5484 57.6299C45.3151 57.6594 46.0596 58.0409 46.7875 58.7689L47.7714 59.7527L46.3933 61.1308L45.3128 60.0503C44.7384 59.4759 44.2045 59.4297 43.7167 59.9174C43.229 60.4052 43.2752 60.9391 43.8496 61.5135L49.0533 66.7171C49.622 67.2858 50.1502 67.3263 50.6379 66.8386C51.1256 66.3509 51.0851 65.8227 50.5164 65.254L49.0947 63.8322L50.4727 62.4541L51.7921 63.7735C52.5201 64.5014 52.9016 65.2459 52.9311 66.0127C52.9606 66.7794 52.6265 67.5115 51.929 68.2091C51.2314 68.9066 50.4993 69.2407 49.7326 69.2112Z" fill="#0404A0"/>
<path d="M49.1047 54.7911L47.774 53.4603L52.2882 48.946L53.619 50.2768L52.0934 51.8024L60.0781 59.787L58.6206 61.2445L50.6359 53.2598L49.1047 54.7911Z" fill="#0404A0"/>
<path d="M55.6455 45.5887L57.103 44.1312L66.4241 53.4523L64.9666 54.9098L55.6455 45.5887Z" fill="#0404A0"/>
<path d="M60.4661 40.7682L61.9406 39.2937L70.1273 45.5635L70.1556 45.5352L63.8858 37.3485L65.2242 36.0101L73.1388 46.7376L71.1993 48.6772L60.4717 40.7625L60.4661 40.7682Z" fill="#0404A0"/>
<path d="M68.5758 32.6584L70.0333 31.2009L79.3544 40.522L77.897 41.9795L68.5758 32.6584Z" fill="#0404A0"/>
<path d="M83.0791 35.8306C82.2896 35.8011 81.5224 35.4195 80.7774 34.6745L75.8809 29.7779C75.1359 29.0329 74.7486 28.26 74.7248 27.4763C74.6953 26.6868 75.0406 25.932 75.7552 25.2174C76.4698 24.5029 77.2246 24.1575 78.0141 24.187C78.8035 24.2165 79.5707 24.5981 80.3157 25.3431L85.2123 30.2396C85.9573 30.9846 86.3446 31.7576 86.3684 32.5413C86.3979 33.3307 86.0525 34.0856 85.3379 34.8001C84.6234 35.5147 83.8685 35.8601 83.0791 35.8306ZM83.8458 31.7881L78.7615 26.7039C78.1473 26.0897 77.5907 26.0321 77.086 26.5369C76.5812 27.0416 76.6388 27.5982 77.253 28.2124L82.3372 33.2967C82.9515 33.9109 83.5081 33.9684 84.0128 33.4637C84.5176 32.959 84.46 32.4023 83.8458 31.7881Z" fill="#0404A0"/>
</svg>
