<svg width="22" height="21" viewBox="0 0 22 21" fill="none" xmlns="http://www.w3.org/2000/svg">
<path d="M14.6822 5.366C14.8048 5.30361 14.9228 5.2327 15.0354 5.15379C15.948 4.51402 16.2293 3.33746 15.6605 2.53229C15.0916 1.72711 13.8915 1.59603 12.9788 2.24205C12.0662 2.88806 11.5974 4.03029 11.0879 5.36288L14.6822 5.366ZM3.60562 9.51672H18.1733V16.9131C18.1733 17.2442 18.0416 17.5617 17.8072 17.7958C17.5727 18.0299 17.2547 18.1614 16.9232 18.1614H4.8558C4.52423 18.1614 4.20624 18.0299 3.97179 17.7958C3.73734 17.5617 3.60562 17.2442 3.60562 16.9131V9.51672Z" stroke="#FFDF91" stroke-width="1.5" stroke-linecap="round" stroke-linejoin="round"/>
<path d="M12.7241 9.51953H9.06342V18.1752H12.7241V9.51953Z" stroke="#FFDF91" stroke-width="1.5" stroke-linecap="round" stroke-linejoin="round"/>
<path d="M7.09407 5.36788C6.9721 5.30613 6.85503 5.23515 6.7439 5.15555C5.83096 4.51544 5.54644 3.33826 6.1186 2.53266C6.69075 1.72705 7.88821 1.59591 8.80428 2.24227C9.72036 2.88862 10.1831 4.03145 10.6958 5.36476L7.09407 5.36788Z" stroke="#FFDF91" stroke-width="1.5" stroke-linecap="round" stroke-linejoin="round"/>
<path d="M17.92 5.36597H3.85548C3.33764 5.36597 2.91785 5.78514 2.91785 6.30222V8.58043C2.91785 9.0975 3.33764 9.51668 3.85548 9.51668H17.92C18.4378 9.51668 18.8576 9.0975 18.8576 8.58043V6.30222C18.8576 5.78514 18.4378 5.36597 17.92 5.36597Z" stroke="#FFDF91" stroke-width="1.5" stroke-linecap="round" stroke-linejoin="round"/>
<path d="M13.0511 5.36694H8.73193V9.51522H13.0511V5.36694Z" stroke="#FFDF91" stroke-width="1.5" stroke-linecap="round" stroke-linejoin="round"/>
</svg>
