<svg width="134" height="134" viewBox="0 0 134 134" fill="none" xmlns="http://www.w3.org/2000/svg">
<g clip-path="url(#clip0_825_791)">
<path d="M67 131.767C102.77 131.767 131.767 102.77 131.767 67.0001C131.767 31.2304 102.77 2.2334 67 2.2334C31.2304 2.2334 2.23334 31.2304 2.23334 67.0001C2.23334 102.77 31.2304 131.767 67 131.767Z" stroke="#0404A0" stroke-width="4"/>
<path d="M78.8159 40.07C78.33 39.8695 77.8377 39.6811 77.3396 39.5054C74.1776 38.3903 70.7756 37.7837 67.232 37.7837C50.4518 37.7837 36.85 51.3855 36.85 68.1657C36.85 84.9448 50.4518 98.5478 67.232 98.5478C84.0111 98.5478 97.6141 84.9448 97.6141 68.1657C97.6141 64.4359 96.942 60.8629 95.7123 57.5616" stroke="#0404A0" stroke-width="4" stroke-miterlimit="10" stroke-linecap="round" stroke-linejoin="round"/>
<path d="M67.232 88.7036C69.7156 88.7036 71.7288 86.6903 71.7288 84.2068C71.7288 81.7233 69.7156 79.71 67.232 79.71C64.7485 79.71 62.7352 81.7233 62.7352 84.2068C62.7352 86.6903 64.7485 88.7036 67.232 88.7036Z" stroke="#0404A0" stroke-width="4" stroke-miterlimit="10" stroke-linecap="round" stroke-linejoin="round"/>
<path d="M85.9437 64.0171C81.7486 67.1129 76.0943 66.7396 72.7341 64.0171" stroke="#0404A0" stroke-width="4" stroke-miterlimit="10" stroke-linecap="round" stroke-linejoin="round"/>
<path d="M61.73 64.0171C57.5349 67.1129 51.8805 66.7396 48.5204 64.0171" stroke="#0404A0" stroke-width="4" stroke-miterlimit="10" stroke-linecap="round" stroke-linejoin="round"/>
<path d="M78.9553 52.3484H75.4994C75.0286 52.3484 74.5938 52.0976 74.3565 51.6906C74.1204 51.283 74.1191 50.7811 74.3526 50.3723L76.6785 46.3011H75.4994C74.7693 46.3011 74.1784 45.7096 74.1784 44.9801C74.1784 44.2507 74.7693 43.6592 75.4994 43.6592H78.9553C79.426 43.6592 79.8608 43.91 80.0982 44.317C80.3342 44.7247 80.3355 45.2265 80.102 45.6353L77.7762 49.7065H78.9553C79.6854 49.7065 80.2762 50.2981 80.2762 51.0275C80.2762 51.7569 79.6854 52.3484 78.9553 52.3484Z" fill="#0404A0"/>
<path d="M87.0707 47.0646H82.1041C81.6333 47.0646 81.1986 46.8137 80.9612 46.4067C80.7252 45.9991 80.7238 45.4973 80.9574 45.0884L84.7939 38.3753H82.1043C81.3742 38.3753 80.7833 37.7838 80.7833 37.0544C80.7833 36.3249 81.3742 35.7334 82.1043 35.7334H87.0708C87.5416 35.7334 87.9763 35.9842 88.2137 36.3912C88.4497 36.7989 88.4511 37.3007 88.2175 37.7096L84.3809 44.4227H87.0705C87.8006 44.4227 88.3915 45.0142 88.3915 45.7436C88.3915 46.4731 87.8007 47.0646 87.0707 47.0646Z" fill="#0404A0"/>
<path d="M97.8266 53.6694H91.3508C90.88 53.6694 90.4453 53.4185 90.2079 53.0116C89.9719 52.6039 89.9706 52.1021 90.2041 51.6932L95.5499 42.3382H91.351C90.6209 42.3382 90.03 41.7467 90.03 41.0172C90.03 40.2878 90.6209 39.6963 91.351 39.6963H97.8267C98.2975 39.6963 98.7322 39.9471 98.9696 40.3541C99.2056 40.7618 99.207 41.2636 98.9734 41.6724L93.6276 51.0275H97.8266C98.5567 51.0275 99.1475 51.619 99.1475 52.3484C99.1475 53.0779 98.5568 53.6694 97.8266 53.6694Z" fill="#0404A0"/>
</g>
<defs>
<clipPath id="clip0_825_791">
<rect width="134" height="134" fill="white"/>
</clipPath>
</defs>
</svg>
