<svg width="135" height="134" viewBox="0 0 135 134" fill="none" xmlns="http://www.w3.org/2000/svg">
<g clip-path="url(#clip0_825_866)">
<path d="M67.1166 131.767C102.886 131.767 131.883 102.77 131.883 67.0001C131.883 31.2304 102.886 2.2334 67.1166 2.2334C31.347 2.2334 2.34998 31.2304 2.34998 67.0001C2.34998 102.77 31.347 131.767 67.1166 131.767Z" stroke="#0404A0" stroke-width="4.46667"/>
<path fill-rule="evenodd" clip-rule="evenodd" d="M66.8673 41.9647C67.2647 41.6525 83.8544 28.7464 94.8195 41.4601C100.839 48.4398 100.329 55.681 98.095 62.7723L90.236 85.285C87.9381 93.1125 86.2997 95.5288 82.2736 98.9296C79.8838 100.948 77.1885 97.4615 74.3522 93.7921C71.895 90.6133 69.3317 87.2971 66.7689 87.3048C64.1638 87.3128 61.5592 90.6342 59.0674 93.8118C56.1933 97.4771 53.4692 100.951 51.0666 98.9296C46.2154 94.8473 44.0879 89.2066 41.8642 80.1545C41.4362 78.4118 40.7849 76.3216 40.0668 74.0165C37.0549 64.349 32.8653 50.9006 39.0104 43.4397C46.5988 34.2267 56.0243 32.7436 66.7669 41.8907L66.8673 41.9647ZM61.5664 42.9108C57.8497 40.3569 54.6904 39.5446 52.0588 39.7517C48.8253 40.0059 45.4668 41.8722 42.0879 45.9746C39.5467 49.0598 39.2881 54.2718 40.6581 61.081C41.3106 64.3239 42.2625 67.608 43.2212 70.7272C43.4279 71.4002 43.638 72.0746 43.8463 72.7429C44.5726 75.0735 45.2759 77.3301 45.7362 79.2034C47.7719 87.4906 49.5428 91.9445 52.7549 95.0825C53.418 94.4659 54.2566 93.4753 55.3662 92.0693C55.539 91.85 55.7185 91.621 55.9033 91.3849C57.04 89.9339 58.3862 88.2149 59.7595 86.8407C61.2183 85.3811 63.6299 83.3274 66.7569 83.3178C69.8983 83.3082 72.3034 85.3952 73.7326 86.8447C75.086 88.2177 76.4135 89.937 77.5338 91.3881C77.717 91.6254 77.8946 91.8554 78.0659 92.0757C79.1527 93.4729 79.9761 94.4593 80.6271 95.0763C81.9185 93.9087 82.756 92.9339 83.4806 91.7216C84.4162 90.1567 85.2876 87.9868 86.4105 84.1619C86.4292 84.0977 86.4498 84.0341 86.4719 83.9709L94.3102 61.5174C95.335 58.2487 95.8555 55.2638 95.5838 52.4587C95.3193 49.7264 94.2829 46.9427 91.8001 44.0641C87.6846 39.2919 82.6282 39.2198 77.858 40.698C75.4556 41.4424 73.2994 42.5512 71.7203 43.4993C71.1279 43.8549 70.6285 44.1809 70.241 44.4452L77.898 50.0753C78.7849 50.7276 78.9753 51.9753 78.323 52.8622C77.671 53.7493 76.423 53.9397 75.5361 53.2874L64.7217 45.3357C64.572 45.2404 64.4273 45.1344 64.2887 45.0174L61.9801 43.3199C61.8188 43.2013 61.6806 43.0631 61.5664 42.9108ZM52.0558 95.6281L52.0636 95.6243C52.0582 95.6269 52.0558 95.6281 52.0558 95.6281Z" fill="#0404A0"/>
</g>
<defs>
<clipPath id="clip0_825_866">
<rect width="135" height="134" fill="white"/>
</clipPath>
</defs>
</svg>
