<svg width="82" height="81" viewBox="0 0 82 81" fill="none" xmlns="http://www.w3.org/2000/svg">
<g clip-path="url(#clip0_825_2141)">
<path fill-rule="evenodd" clip-rule="evenodd" d="M41.3159 77.4536C61.8204 77.4536 78.4425 60.8315 78.4425 40.327C78.4425 19.8224 61.8204 3.2003 41.3159 3.2003C20.8113 3.2003 4.1892 19.8224 4.1892 40.327C4.1892 60.8315 20.8113 77.4536 41.3159 77.4536ZM41.3159 80.1055C63.2849 80.1055 81.0944 62.296 81.0944 40.327C81.0944 18.3579 63.2849 0.548393 41.3159 0.548396C19.3468 0.548399 1.53729 18.3579 1.5373 40.327C1.5373 62.296 19.3468 80.1055 41.3159 80.1055Z" fill="#0404A0"/>
<path d="M51.0755 42.6064C50.8965 41.5918 50.6983 40.5388 50.504 39.5112C50.0015 36.8511 49.4824 34.1005 49.4824 32.8249C49.4817 23.3407 46.9631 19.1118 41.3145 19.1118C35.6666 19.1118 33.148 23.3407 33.148 32.8256C33.148 34.1026 32.6282 36.8559 32.125 39.5188C31.9321 40.5436 31.7339 41.5946 31.5555 42.6071C27.7441 42.9352 24.7415 46.2113 24.7415 50.1916C24.7415 53.893 28.2373 57.0327 30.7454 57.6548C31.0152 57.7219 31.3281 57.7548 31.7034 57.7548C32.4141 57.7548 33.3641 57.6281 34.1086 57.4732C36.1088 59.2489 38.6368 60.2163 41.3145 60.2163C43.9936 60.2163 46.5216 59.2483 48.5211 57.4725C49.2663 57.6274 50.217 57.7541 50.9284 57.7541C51.3043 57.7541 51.6172 57.7212 51.8864 57.6541C54.3937 57.0334 57.8903 53.8937 57.8903 50.1916C57.8903 46.2113 54.8863 42.9339 51.0755 42.6064ZM51.5409 56.1168C51.3798 56.1565 51.1677 56.1736 50.9284 56.1736C50.0923 56.1736 48.9295 55.9681 48.3713 55.8174C48.9421 55.5043 49.6561 55.1796 50.4232 55.0117C54.4852 54.117 52.7217 52.1516 50.0042 53.047C47.8707 53.7498 47.1898 56.4237 47.15 56.584C45.5384 57.8637 43.5183 58.6351 41.3145 58.6351C39.1121 58.6351 37.0934 57.8651 35.4823 56.5867C35.4498 56.4545 34.7729 53.754 32.6269 53.047C29.91 52.1516 28.1465 54.1177 32.2086 55.0118C32.9743 55.1796 33.6883 55.505 34.2598 55.8174C33.7029 55.9674 32.5381 56.1736 31.7034 56.1736C31.4647 56.1736 31.2519 56.1565 31.0914 56.1168C29.2815 55.6681 26.2477 53.1429 26.2477 50.1922C26.2477 46.8621 28.9063 44.1608 32.1854 44.1608C32.3988 44.1608 32.6097 44.1732 32.8165 44.1958C33.4636 40.1744 34.6536 35.0034 34.6536 32.8256C34.6536 22.6036 37.635 20.6929 41.3139 20.6929C44.996 20.6929 47.9748 22.6036 47.9748 32.8256C47.9748 35.0028 49.1655 40.1744 49.8126 44.1965C50.0201 44.1732 50.2316 44.1608 50.445 44.1608C53.7241 44.1608 56.3827 46.8614 56.3827 50.1922C56.384 53.1429 53.3502 55.668 51.5409 56.1168Z" fill="#0404A0" stroke="#0404A0" stroke-width="0.928167"/>
</g>
<defs>
<clipPath id="clip0_825_2141">
<rect width="80.8831" height="79.5571" fill="white" transform="translate(0.874329 0.548401)"/>
</clipPath>
</defs>
</svg>
