<svg width="81" height="81" viewBox="0 0 81 81" fill="none" xmlns="http://www.w3.org/2000/svg">
<g clip-path="url(#clip0_825_2135)">
<path fill-rule="evenodd" clip-rule="evenodd" d="M40.4199 77.4536C60.9244 77.4536 77.5465 60.8315 77.5465 40.327C77.5465 19.8224 60.9244 3.2003 40.4199 3.2003C19.9153 3.2003 3.2932 19.8224 3.29321 40.327C3.29321 60.8315 19.9153 77.4536 40.4199 77.4536ZM40.4199 80.1055C62.3889 80.1055 80.1984 62.296 80.1984 40.327C80.1984 18.3579 62.3889 0.548393 40.4199 0.548396C18.4508 0.548399 0.641299 18.3579 0.641301 40.327C0.641304 62.296 18.4508 80.1055 40.4199 80.1055Z" fill="#0404A0"/>
<path d="M67.8116 13.7027L13.9002 67.6141" stroke="#0404A0" stroke-width="2.6519" stroke-linecap="square" stroke-linejoin="round"/>
<path d="M24.5084 33.3314L24.5084 46.705M32.5326 28.8735L32.5326 51.1629M40.5568 24.4156L40.5568 55.6208M48.581 28.8735L48.581 51.1629M56.6052 33.3314L56.6052 46.705" stroke="#0404A0" stroke-width="2.67473" stroke-linecap="round" stroke-linejoin="round"/>
</g>
<defs>
<clipPath id="clip0_825_2135">
<rect width="79.5571" height="79.5571" fill="white" transform="translate(0.641296 0.548401)"/>
</clipPath>
</defs>
</svg>
