<svg width="82" height="81" viewBox="0 0 82 81" fill="none" xmlns="http://www.w3.org/2000/svg">
<g clip-path="url(#clip0_825_2122)">
<path d="M40.8371 78.7796C62.0739 78.7796 79.2897 61.5638 79.2897 40.327C79.2897 19.0902 62.0739 1.87438 40.8371 1.87438C19.6003 1.87439 2.38447 19.0902 2.38447 40.327C2.38448 61.5638 19.6003 78.7796 40.8371 78.7796Z" stroke="#0404A0" stroke-width="2.6519"/>
<path d="M47.8523 24.3385C47.5639 24.2194 47.2716 24.1076 46.9758 24.0033C45.0985 23.3412 43.0787 22.9811 40.9749 22.9811C31.0122 22.9811 22.9367 31.0566 22.9367 41.0192C22.9367 50.9811 31.0122 59.0573 40.9749 59.0573C50.9368 59.0573 59.013 50.9811 59.013 41.0192C59.013 38.8047 58.6139 36.6835 57.8839 34.7234" stroke="#0404A0" stroke-width="1.98893" stroke-miterlimit="10" stroke-linecap="round" stroke-linejoin="round"/>
<path d="M40.9749 53.2128C42.4494 53.2128 43.6447 52.0175 43.6447 50.543C43.6447 49.0685 42.4494 47.8732 40.9749 47.8732C39.5004 47.8732 38.3051 49.0685 38.3051 50.543C38.3051 52.0175 39.5004 53.2128 40.9749 53.2128Z" stroke="#0404A0" stroke-width="1.98893" stroke-miterlimit="10" stroke-linecap="round" stroke-linejoin="round"/>
<path d="M52.0842 38.556C49.5935 40.394 46.2364 40.1724 44.2415 38.556" stroke="#0404A0" stroke-width="1.98893" stroke-miterlimit="10" stroke-linecap="round" stroke-linejoin="round"/>
<path d="M37.7082 38.556C35.2175 40.394 31.8605 40.1724 29.8655 38.556" stroke="#0404A0" stroke-width="1.98893" stroke-miterlimit="10" stroke-linecap="round" stroke-linejoin="round"/>
<path d="M47.9351 31.6282L45.8833 31.6282C45.6038 31.6282 45.3457 31.4793 45.2047 31.2376C45.0646 30.9956 45.0638 30.6977 45.2024 30.4549L46.5833 28.0378L45.8833 28.0378C45.4498 28.0378 45.099 27.6866 45.099 27.2536C45.099 26.8205 45.4498 26.4693 45.8833 26.4693L47.9351 26.4693C48.2146 26.4693 48.4727 26.6182 48.6136 26.8599C48.7538 27.1019 48.7545 27.3998 48.6159 27.6426L47.235 30.0597L47.9351 30.0597C48.3685 30.0597 48.7193 30.4109 48.7193 30.8439C48.7193 31.277 48.3685 31.6282 47.9351 31.6282Z" fill="#0404A0"/>
<path d="M52.7533 28.4911L49.8046 28.4911C49.5251 28.4911 49.267 28.3422 49.126 28.1005C48.9859 27.8585 48.9851 27.5606 49.1238 27.3178L51.4015 23.3322L49.8047 23.3322C49.3712 23.3322 49.0204 22.981 49.0204 22.5479C49.0204 22.1149 49.3712 21.7637 49.8047 21.7637L52.7533 21.7637C53.0328 21.7637 53.291 21.9126 53.4319 22.1542C53.572 22.3963 53.5728 22.6942 53.4342 22.9369L51.1563 26.9226L52.7532 26.9226C53.1866 26.9226 53.5374 27.2738 53.5374 27.7068C53.5374 28.1399 53.1867 28.4911 52.7533 28.4911Z" fill="#0404A0"/>
<path d="M59.1391 32.4125L55.2944 32.4125C55.0149 32.4125 54.7568 32.2636 54.6159 32.0219C54.4757 31.7799 54.4749 31.482 54.6136 31.2392L57.7874 25.685L55.2945 25.685C54.861 25.685 54.5102 25.3339 54.5102 24.9008C54.5102 24.4677 54.861 24.1165 55.2945 24.1165L59.1392 24.1165C59.4187 24.1165 59.6768 24.2654 59.8177 24.5071C59.9579 24.7491 59.9587 25.047 59.82 25.2898L56.6462 30.844L59.1391 30.844C59.5726 30.844 59.9234 31.1951 59.9234 31.6282C59.9234 32.0613 59.5727 32.4125 59.1391 32.4125Z" fill="#0404A0"/>
</g>
<defs>
<clipPath id="clip0_825_2122">
<rect width="80.8831" height="79.5571" fill="white" transform="translate(0.395538 0.548462)"/>
</clipPath>
</defs>
</svg>
