<svg width="151" height="120" viewBox="0 0 151 120" fill="none" xmlns="http://www.w3.org/2000/svg">
<g clip-path="url(#clip0_825_594)">
<path d="M102.619 96.0521H102.63L102.641 96.0516C104.627 95.9619 105.776 98.3678 104.43 99.8796C92.3073 113.24 74.3807 121.065 54.6118 119.208C26.155 116.515 3.13363 93.0699 0.716371 64.308L0.218128 64.3499L0.716367 64.308C-1.84546 33.8683 18.0345 7.69243 45.4511 0.557284C46.4268 0.303682 47.2869 0.713065 47.7907 1.42637C48.2973 2.14364 48.4245 3.14583 47.9109 4.04599C42.7395 13.0399 39.769 23.5139 39.769 34.6527C39.769 68.5863 67.0165 96.0888 100.654 96.0888C100.989 96.0888 101.322 96.0795 101.647 96.0704L101.651 96.0703C101.979 96.0611 102.3 96.0521 102.619 96.0521Z" fill="#0404A0" stroke="#0404A0"/>
<path d="M78.9741 11.3955L79.0873 11.7243L79.4349 11.7327L88.6383 11.9529L88.6383 11.9531H88.6502C88.9855 11.9531 89.2223 12.1595 89.3154 12.45C89.4093 12.7427 89.3404 13.0768 89.0682 13.2995L81.726 18.9114L81.4517 19.1211L81.5506 19.4519L84.2046 28.3304C84.2049 28.3311 84.2051 28.3318 84.2053 28.3325C84.405 29.0331 83.6581 29.5622 83.0759 29.1744L75.5135 23.8911L75.2272 23.6911L74.9408 23.8911L67.3745 29.1772C66.8326 29.5557 66.0484 29.0368 66.2491 28.3326C66.2493 28.3318 66.2495 28.3311 66.2497 28.3304L68.9038 19.4519L69.0027 19.1211L68.7284 18.9114L61.3809 13.2955C61.3808 13.2954 61.3807 13.2954 61.3806 13.2953C60.8431 12.8826 61.1274 11.9761 61.8183 11.9529C61.8188 11.9528 61.8194 11.9528 61.8199 11.9528L71.0194 11.7327L71.3671 11.7243L71.4803 11.3955L74.498 2.62669C74.7406 1.96798 75.6447 1.96917 75.8849 2.63024L76.0046 2.95949H76.0709L78.9741 11.3955Z" fill="#0404A0" stroke="#0404A0"/>
<path d="M135.358 80.481L135.472 80.8107L135.821 80.8179L144.66 81.0015L144.66 81.0016H144.67C145.443 81.0016 145.822 82.0679 145.169 82.5624L145.167 82.5639L138.11 87.96L137.836 88.1694L137.934 88.4999L140.48 97.0502C140.48 97.0506 140.48 97.0511 140.48 97.0516C140.712 97.8506 139.836 98.4665 139.173 98.0053C139.173 98.0052 139.172 98.005 139.172 98.0049L131.898 92.9035L131.611 92.7021L131.324 92.9035L124.05 98.0049C124.05 98.0051 124.05 98.0052 124.05 98.0054C123.392 98.4621 122.511 97.8218 122.741 97.0541L122.742 97.0529L125.288 88.4999L125.386 88.1694L125.112 87.96L118.055 82.5639L118.053 82.5624C117.409 82.075 117.731 81.0262 118.564 81.0014C118.565 81.0014 118.565 81.0014 118.566 81.0014L127.402 80.8179L127.751 80.8107L127.864 80.481L130.773 72.0416C131.059 71.2545 132.131 71.2985 132.373 72.0319L132.487 72.3751H132.564L135.358 80.481Z" fill="#0404A0" stroke="#0404A0"/>
<path d="M135.722 23.6196L135.835 23.9488L136.184 23.9565L149.461 24.2502L149.461 24.2503H149.472C150.447 24.2503 150.93 25.5653 150.078 26.2164L150.077 26.2167L139.492 34.3293L139.219 34.5387L139.317 34.8686L143.136 47.7166L143.137 47.7199C143.444 48.725 142.327 49.5148 141.505 48.9289L141.501 48.9264L130.588 41.2911L130.302 41.0905L130.015 41.2911L119.102 48.9264L119.099 48.9289C118.276 49.5148 117.16 48.725 117.466 47.72L117.467 47.7166L121.287 34.8686L121.385 34.5387L121.111 34.3293L110.529 26.219C109.707 25.568 110.157 24.2751 111.143 24.2502C111.143 24.2502 111.143 24.2502 111.143 24.2502L124.42 23.9565L124.768 23.9488L124.881 23.6196L129.245 10.9598C129.245 10.9591 129.245 10.9583 129.246 10.9576C129.604 9.95478 130.966 9.99236 131.282 10.9491L131.395 11.2922H131.473L135.722 23.6196Z" fill="#0404A0" stroke="#0404A0"/>
</g>
<defs>
<clipPath id="clip0_825_594">
<rect width="151" height="120" fill="white"/>
</clipPath>
</defs>
</svg>
