<svg width="346" height="345" viewBox="0 0 346 345" fill="none" xmlns="http://www.w3.org/2000/svg">
<rect x="1" y="1.5" width="344" height="342" rx="171" stroke="#0404A0" stroke-width="1.8"/>
<path d="M22.4045 160.325H32.6267L40.5386 191.387H40.6968V160.325H47.9442V212.221H39.5575L29.7784 174.352H29.6202V212.221H22.4045V160.325Z" fill="#0404A0"/>
<path d="M71.4584 209.53C69.338 207.25 68.262 204.052 68.262 199.905V172.642C68.262 168.495 69.338 165.265 71.4584 163.017C73.5788 160.737 76.6486 159.597 80.6362 159.597C84.6238 159.597 87.6936 160.737 89.814 163.017C91.9344 165.297 93.0105 168.495 93.0105 172.642V199.905C93.0105 204.052 91.9344 207.282 89.814 209.53C87.6936 211.81 84.6238 212.95 80.6362 212.95C76.6486 212.95 73.5788 211.81 71.4584 209.53ZM84.877 200.411V172.104C84.877 168.685 83.4845 166.975 80.6679 166.975C77.8512 166.975 76.4587 168.685 76.4587 172.104V200.411C76.4587 203.831 77.8512 205.541 80.6679 205.541C83.4845 205.541 84.877 203.831 84.877 200.411Z" fill="#0404A0"/>
<path d="M115.86 209.625C113.803 207.409 112.79 204.274 112.79 200.221V172.358C112.79 168.305 113.803 165.17 115.86 162.954C117.917 160.737 120.892 159.629 124.785 159.629C128.677 159.629 131.652 160.737 133.709 162.954C135.767 165.17 136.779 168.305 136.779 172.358V177.835H129.089V171.819C129.089 168.621 127.728 167.006 125.006 167.006C122.285 167.006 120.924 168.621 120.924 171.819V200.791C120.924 203.958 122.285 205.541 125.006 205.541C127.728 205.541 129.089 203.958 129.089 200.791V192.875H136.779V200.221C136.779 204.274 135.767 207.409 133.709 209.625C131.652 211.842 128.677 212.95 124.785 212.95C120.892 212.95 117.917 211.842 115.86 209.625Z" fill="#0404A0"/>
<path d="M162.857 167.734H154.344V160.325H179.535V167.734H171.022V212.19H162.889V167.734H162.857Z" fill="#0404A0"/>
<path d="M198.271 160.325H206.404V212.221H198.271V160.325Z" fill="#0404A0"/>
<path d="M225.171 160.325H233.4L238.748 200.569H238.906L244.255 160.325H251.724L243.875 212.221H233.052L225.203 160.325H225.171Z" fill="#0404A0"/>
<path d="M270.427 160.325H278.561V212.221H270.427V160.325Z" fill="#0404A0"/>
<path d="M302.044 209.53C299.923 207.25 298.847 204.052 298.847 199.905V172.642C298.847 168.495 299.923 165.265 302.044 163.017C304.164 160.737 307.234 159.597 311.221 159.597C315.209 159.597 318.279 160.737 320.399 163.017C322.52 165.297 323.596 168.495 323.596 172.642V199.905C323.596 204.052 322.52 207.282 320.399 209.53C318.279 211.81 315.209 212.95 311.221 212.95C307.234 212.95 304.164 211.81 302.044 209.53ZM315.462 200.411V172.104C315.462 168.685 314.07 166.975 311.253 166.975C308.436 166.975 307.044 168.685 307.044 172.104V200.411C307.044 203.831 308.436 205.541 311.253 205.541C314.07 205.541 315.462 203.831 315.462 200.411Z" fill="#0404A0"/>
<path d="M48.7038 108.493L34.2091 98.2019L37.8169 93.1358C38.5448 92.1226 39.3044 91.426 40.0956 91.0144C40.9184 90.6027 41.7096 90.4444 42.5324 90.5394C43.3553 90.6344 44.1148 90.9194 44.8111 91.426C45.444 91.8693 45.8555 92.3442 46.1086 92.8508C46.3618 93.3574 46.4884 93.8641 46.4568 94.4023C46.4568 94.9406 46.3302 95.4472 46.1719 95.9222L46.2985 96.0172C46.6466 95.6055 47.1214 95.2572 47.7227 95.0039C48.324 94.7506 48.9886 94.6556 49.7481 94.7506C50.476 94.814 51.2356 95.1306 51.9951 95.6689C52.723 96.1755 53.261 96.8088 53.6091 97.5687C53.9573 98.2969 54.0522 99.1518 53.8623 100.102C53.7041 101.052 53.1977 102.097 52.4065 103.236L48.7038 108.461V108.493ZM41.8362 100.957L44.1465 97.6953C44.5263 97.157 44.7478 96.6188 44.8427 96.0488C44.9377 95.4789 44.8744 94.9406 44.6845 94.4023C44.4946 93.8957 44.1465 93.4524 43.6085 93.0725C42.9755 92.6292 42.2793 92.4709 41.5197 92.5975C40.7602 92.7242 40.0323 93.2625 39.3677 94.244L37.0258 97.5687L41.8362 100.988V100.957ZM48.3873 105.611L50.8558 102.128C51.6786 100.988 52.0268 100.007 51.9318 99.2152C51.8369 98.4236 51.4571 97.7903 50.8241 97.347C50.3178 96.9987 49.7798 96.8088 49.2101 96.7454C48.6088 96.7138 48.0391 96.8087 47.4378 97.0937C46.8682 97.3787 46.3302 97.822 45.8871 98.4552L43.3553 102.033L48.3873 105.611Z" fill="#0404A0"/>
<path d="M60.8882 92.3444L47.8493 80.249L55.1283 72.3965L56.5208 73.6947L50.6976 79.9957L55.0966 84.0803L60.54 78.1909L61.9325 79.4891L56.4891 85.3784L60.9198 89.4947L66.8379 83.0987L68.2304 84.3969L60.8565 92.376L60.8882 92.3444Z" fill="#0404A0"/>
<path d="M63.2617 67.2352L62.0275 65.7787L72.2813 57.2612L73.5156 58.7177L69.2115 62.2957L79.3388 74.4861L77.6931 75.8476L67.5658 63.6572L63.2617 67.2352Z" fill="#0404A0"/>
<path d="M80.6363 53.5565L79.6236 51.9417L90.9218 44.8491L91.9345 46.464L87.1874 49.4403L95.6057 62.8655L93.7701 64.0054L85.3518 50.5485L80.6047 53.5249L80.6363 53.5565Z" fill="#0404A0"/>
<path d="M107.157 56.3428L99.7515 40.1945L109.499 35.73L110.29 37.4715L102.505 41.0494L105.005 46.4955L112.284 43.1392L113.075 44.8807L105.796 48.237L108.328 53.7147L116.24 50.0735L117.031 51.8149L107.157 56.3428Z" fill="#0404A0"/>
<path d="M124.595 48.9344L119.373 31.9312L125.101 30.158C126.43 29.7464 127.601 29.6514 128.583 29.8414C129.564 30.0314 130.386 30.443 131.051 31.1079C131.716 31.7729 132.19 32.5961 132.475 33.6093C132.792 34.6226 132.855 35.5725 132.697 36.459C132.538 37.3456 132.095 38.1689 131.368 38.8655C130.671 39.562 129.659 40.132 128.329 40.5119L123.677 41.9368L123.107 40.0687L127.696 38.6438C128.614 38.3588 129.279 38.0105 129.753 37.5673C130.228 37.124 130.513 36.6174 130.608 36.0474C130.703 35.4775 130.64 34.8442 130.45 34.1793C130.228 33.5144 129.943 32.9444 129.532 32.5011C129.121 32.0578 128.583 31.8045 127.95 31.7095C127.317 31.6146 126.525 31.7095 125.608 31.9628L122 33.0711L126.684 48.2378L124.627 48.8711L124.595 48.9344ZM130.228 38.8338L136.748 45.1665L134.374 45.8947L127.918 39.5304L130.228 38.8021V38.8338Z" fill="#0404A0"/>
<path d="M155.103 41.7147L153.553 24.0149L159.756 23.4766C160.99 23.3817 162.034 23.4766 162.857 23.8566C163.68 24.2049 164.344 24.7115 164.787 25.4081C165.231 26.073 165.515 26.8646 165.579 27.7195C165.642 28.4794 165.579 29.1127 165.357 29.651C165.136 30.1893 164.819 30.6009 164.408 30.9175C163.996 31.2342 163.553 31.4875 163.047 31.6774V31.8358C163.617 31.8358 164.155 31.9624 164.756 32.2474C165.357 32.5324 165.832 33.0073 166.275 33.6089C166.686 34.2105 166.94 35.0021 167.034 35.9203C167.098 36.8069 166.971 37.6301 166.655 38.3584C166.307 39.1183 165.737 39.7199 164.882 40.2265C164.028 40.7332 162.92 41.0181 161.528 41.1448L155.135 41.7147H155.103ZM156.369 31.6141L160.357 31.2658C160.99 31.2025 161.559 31.0442 162.066 30.7275C162.572 30.4426 162.952 30.031 163.205 29.556C163.458 29.0811 163.585 28.5111 163.522 27.8778C163.458 27.0863 163.11 26.453 162.54 25.978C161.971 25.5031 161.053 25.2815 159.882 25.3764L155.831 25.7247L156.338 31.6141H156.369ZM157.065 39.6249L161.306 39.245C162.699 39.1183 163.68 38.77 164.218 38.1684C164.756 37.5668 165.009 36.8702 164.914 36.1103C164.851 35.5087 164.661 34.9704 164.313 34.4955C163.965 34.0205 163.49 33.6406 162.889 33.3873C162.287 33.134 161.623 33.039 160.832 33.1023L156.464 33.4823L157.002 39.6249H157.065Z" fill="#0404A0"/>
<path d="M175.263 40.5434L176.054 22.7803L182.067 23.0336C183.46 23.0969 184.567 23.3819 185.453 23.8885C186.34 24.3951 186.941 25.06 187.352 25.9149C187.732 26.7699 187.922 27.6881 187.859 28.733C187.827 29.7779 187.542 30.6961 187.099 31.4877C186.624 32.2793 185.96 32.8809 185.042 33.2925C184.124 33.7041 182.985 33.8941 181.624 33.8308L176.782 33.6091L176.877 31.6777L181.656 31.8993C182.605 31.931 183.365 31.836 183.966 31.5827C184.567 31.3294 185.01 30.9494 185.295 30.4428C185.58 29.9362 185.738 29.3346 185.77 28.638C185.802 27.9414 185.707 27.3081 185.453 26.7699C185.2 26.2316 184.821 25.7883 184.219 25.4717C183.65 25.155 182.89 24.965 181.909 24.9334L178.143 24.7751L177.447 40.6384L175.295 40.5434H175.263ZM183.966 32.9442L187.985 41.1133L185.485 40.9867L181.529 32.8175L183.966 32.9125V32.9442Z" fill="#0404A0"/>
<path d="M195.169 42.0308L198.239 24.521L208.809 26.3891L208.493 28.2573L200.043 26.7691L198.999 32.6901L206.879 34.0833L206.562 35.9515L198.682 34.5583L197.638 40.511L206.214 42.0308L205.898 43.8989L195.201 42.0308H195.169Z" fill="#0404A0"/>
<path d="M214.411 46.0205L212.259 45.3239L223.874 30.3472L225.994 31.0121L226.817 49.9468L224.665 49.2502L224.127 33.3868H224L214.411 45.9888V46.0205ZM217.323 39.6562L225.994 42.4109L225.424 44.2157L216.753 41.461L217.323 39.6562Z" fill="#0404A0"/>
<path d="M237.229 37.0921L238.02 35.3506L250.11 40.9233L249.319 42.6648L244.255 40.3217L237.609 54.7285L235.647 53.842L242.293 39.4352L237.229 37.0921Z" fill="#0404A0"/>
<path d="M249.413 60.7439L259.034 45.7988L260.838 46.9704L256.534 53.6197L264.509 58.7491L268.813 52.0998L270.617 53.2714L260.996 68.2165L259.193 67.0449L263.497 60.364L255.521 55.2345L251.217 61.9155L249.413 60.7439Z" fill="#0404A0"/>
<path d="M280.745 61.1877L269.51 74.9612L267.832 73.5997L279.067 59.8262L280.745 61.1877Z" fill="#0404A0"/>
<path d="M298.72 78.2544L286.03 90.6981L284.574 89.2099L287.77 72.5233L287.644 72.3967L277.675 82.149L276.156 80.5975L288.846 68.1538L290.302 69.642L287.106 86.3919L287.232 86.5185L297.233 76.7346L298.72 78.2544Z" fill="#0404A0"/>
<path d="M308.563 99.9437C308.911 99.4371 309.196 98.9305 309.386 98.4239C309.576 97.9173 309.702 97.379 309.702 96.8407C309.702 96.3025 309.639 95.7642 309.481 95.2259C309.291 94.6876 309.038 94.1494 308.658 93.6427C308.057 92.7878 307.265 92.1862 306.316 91.7746C305.367 91.3947 304.322 91.2997 303.151 91.5213C301.98 91.7429 300.778 92.2812 299.543 93.1678C298.309 94.0544 297.391 95.0359 296.822 96.0808C296.252 97.1257 296.031 98.1389 296.094 99.1838C296.157 100.229 296.537 101.179 297.17 102.065C297.771 102.888 298.467 103.49 299.29 103.87C300.113 104.25 300.968 104.377 301.854 104.25C302.771 104.123 303.658 103.775 304.544 103.11L304.829 103.712L301.695 99.3738L303.246 98.2656L307.202 103.743L305.651 104.852C304.48 105.706 303.246 106.213 302.012 106.34C300.778 106.466 299.607 106.276 298.467 105.738C297.328 105.2 296.379 104.345 295.556 103.205C294.638 101.939 294.132 100.577 294.037 99.1838C293.942 97.7906 294.258 96.4291 294.986 95.0676C295.714 93.7377 296.822 92.5029 298.341 91.4263C299.48 90.6031 300.619 90.0015 301.759 89.6532C302.898 89.3049 303.974 89.1782 305.018 89.2732C306.063 89.3682 307.044 89.6848 307.93 90.1914C308.816 90.7297 309.607 91.4263 310.272 92.3762C310.81 93.1361 311.221 93.9277 311.475 94.751C311.728 95.5742 311.823 96.3975 311.791 97.2207C311.759 98.0439 311.57 98.8355 311.253 99.5955C310.937 100.355 310.462 101.052 309.861 101.685L308.563 99.8804V99.9437Z" fill="#0404A0"/>
<path d="M68.8633 277.036L81.0793 264.149L85.5733 268.424C86.4594 269.279 87.0607 270.134 87.3455 270.989C87.6304 271.844 87.6937 272.667 87.4721 273.458C87.2506 274.25 86.8708 274.947 86.2695 275.58C85.7315 276.15 85.2251 276.498 84.6871 276.688C84.1491 276.878 83.6111 276.91 83.1047 276.815C82.5984 276.72 82.092 276.561 81.6489 276.308L81.5224 276.435C81.9021 276.846 82.1553 277.353 82.3136 277.986C82.4718 278.62 82.4718 279.284 82.3136 280.013C82.1237 280.741 81.7122 281.438 81.0793 282.134C80.478 282.767 79.7817 283.211 78.9905 283.464C78.1993 283.717 77.3449 283.686 76.4271 283.369C75.5093 283.084 74.5282 282.451 73.5155 281.469L68.8633 277.036ZM71.7432 277.131L74.8447 280.076C75.8574 281.058 76.7752 281.533 77.598 281.533C78.3892 281.533 79.0855 281.279 79.6235 280.709C80.0349 280.266 80.3197 279.759 80.4463 279.189C80.5729 278.62 80.5413 278.018 80.3514 277.385C80.1615 276.783 79.7817 276.181 79.2121 275.675L76.0473 272.667L71.8065 277.163L71.7432 277.131ZM77.2816 271.274L80.1932 274.028C80.6679 274.472 81.1742 274.788 81.7439 274.947C82.3136 275.105 82.8516 275.137 83.3896 275.01C83.9276 274.883 84.4339 274.598 84.8454 274.155C85.3834 273.585 85.6366 272.92 85.6366 272.16C85.6366 271.4 85.1935 270.609 84.339 269.785L81.3958 266.999L77.3449 271.274H77.2816Z" fill="#0404A0"/>
<path d="M85.6365 291.791L95.8904 277.258L104.657 283.432L103.549 284.984L96.555 280.044L93.1054 284.952L99.6565 289.575L98.5488 291.126L91.9977 286.503L88.5165 291.443L95.6372 296.477L94.5295 298.029L85.6682 291.76L85.6365 291.791Z" fill="#0404A0"/>
<path d="M109.562 288.752L110.417 287.042L122.285 293.09L121.43 294.8L116.461 292.266L109.277 306.42L107.347 305.438L114.531 291.285L109.562 288.752Z" fill="#0404A0"/>
<path d="M127.443 297.301L128.045 295.496L140.704 299.707L140.102 301.512L134.785 299.739L129.785 314.811L127.728 314.146L132.728 299.074L127.412 297.301H127.443Z" fill="#0404A0"/>
<path d="M144.596 318.863L147.698 301.354L158.268 303.222L157.92 305.09L149.47 303.602L148.426 309.523L156.306 310.916L155.958 312.784L148.077 311.391L147.033 317.343L155.61 318.863L155.261 320.731L144.565 318.832L144.596 318.863Z" fill="#0404A0"/>
<path d="M165.42 321.808L165.99 304.044L172.003 304.234C173.396 304.266 174.535 304.551 175.389 305.058C176.276 305.564 176.909 306.229 177.288 307.052C177.7 307.876 177.858 308.826 177.826 309.87C177.795 310.915 177.542 311.834 177.098 312.625C176.655 313.417 175.959 314.05 175.073 314.462C174.187 314.905 173.048 315.095 171.655 315.032L166.813 314.873L166.876 312.942L171.655 313.1C172.604 313.1 173.364 313.005 173.965 312.752C174.567 312.499 174.978 312.119 175.263 311.612C175.548 311.105 175.706 310.504 175.706 309.775C175.706 309.079 175.611 308.446 175.358 307.907C175.105 307.369 174.693 306.926 174.124 306.641C173.554 306.324 172.794 306.166 171.813 306.134L168.047 306.008L167.541 321.871L165.389 321.808H165.42ZM174.029 314.082L178.143 322.219L175.643 322.124L171.592 314.018L174.029 314.082Z" fill="#0404A0"/>
<path d="M206.879 305.311C206.594 304.456 206.056 303.887 205.233 303.538C204.41 303.222 203.461 303.158 202.417 303.348C201.657 303.507 200.992 303.76 200.486 304.14C199.948 304.52 199.568 304.931 199.347 305.438C199.125 305.945 199.062 306.483 199.157 307.021C199.252 307.496 199.442 307.876 199.726 308.161C200.011 308.446 200.359 308.668 200.739 308.826C201.119 308.984 201.53 309.079 201.942 309.143C202.353 309.206 202.733 309.238 203.081 309.269L204.948 309.396C205.423 309.396 205.961 309.491 206.562 309.586C207.164 309.681 207.765 309.871 208.335 310.124C208.904 310.378 209.442 310.757 209.885 311.264C210.328 311.771 210.645 312.404 210.803 313.227C210.993 314.177 210.93 315.064 210.582 315.919C210.234 316.774 209.664 317.533 208.809 318.167C207.955 318.8 206.879 319.243 205.518 319.528C204.284 319.782 203.144 319.782 202.163 319.56C201.182 319.338 200.359 318.927 199.695 318.293C199.03 317.692 198.587 316.9 198.302 315.95L200.486 315.507C200.676 316.14 200.992 316.647 201.467 316.995C201.942 317.343 202.511 317.565 203.144 317.66C203.777 317.755 204.442 317.723 205.138 317.597C205.929 317.438 206.626 317.153 207.227 316.773C207.828 316.394 208.24 315.919 208.525 315.349C208.809 314.779 208.873 314.209 208.746 313.575C208.62 313.006 208.366 312.562 207.987 312.246C207.607 311.961 207.1 311.739 206.531 311.612C205.961 311.486 205.36 311.391 204.695 311.359L202.417 311.169C200.992 311.042 199.79 310.694 198.84 310.124C197.891 309.554 197.321 308.699 197.068 307.496C196.878 306.515 196.973 305.628 197.353 304.773C197.733 303.95 198.334 303.222 199.157 302.652C199.98 302.082 200.929 301.67 202.037 301.448C203.144 301.227 204.189 301.227 205.138 301.448C206.088 301.67 206.879 302.082 207.543 302.683C208.208 303.285 208.619 304.013 208.841 304.868L206.784 305.28L206.879 305.311Z" fill="#0404A0"/>
<path d="M221.31 315.19L215.392 298.409L217.418 297.681L222.703 312.657L230.488 309.903L231.121 311.708L221.31 315.159V315.19Z" fill="#0404A0"/>
<path d="M240.046 307.845L231.88 292.045L241.406 287.105L242.293 288.815L234.665 292.742L237.419 298.093L244.54 294.42L245.426 296.13L238.305 299.802L241.09 305.185L248.844 301.196L249.73 302.905L240.077 307.908L240.046 307.845Z" fill="#0404A0"/>
<path d="M258.37 297.522L248.084 283.02L256.819 276.814L257.927 278.366L250.933 283.337L254.414 288.245L260.965 283.59L262.073 285.142L255.521 289.796L259.003 294.736L266.092 289.701L267.199 291.253L258.338 297.554L258.37 297.522Z" fill="#0404A0"/>
<path d="M275.08 284.762L262.832 271.875L267.168 267.727C268.18 266.777 269.161 266.176 270.174 265.922C271.155 265.669 272.105 265.701 272.991 266.017C273.877 266.334 274.7 266.872 275.428 267.632C276.156 268.392 276.662 269.215 276.947 270.134C277.232 271.052 277.232 272.002 276.947 272.983C276.662 273.965 275.997 274.915 275.016 275.865L271.883 278.841L270.554 277.448L273.624 274.535C274.32 273.87 274.763 273.237 274.953 272.603C275.143 271.97 275.143 271.337 274.953 270.767C274.763 270.165 274.415 269.627 273.909 269.12C273.402 268.614 272.896 268.234 272.295 268.012C271.725 267.79 271.092 267.759 270.459 267.917C269.826 268.075 269.13 268.519 268.434 269.184L265.68 271.78L276.599 283.274L275.048 284.762H275.08Z" fill="#0404A0"/>
</svg>
