<svg width="420" height="21" viewBox="0 0 420 21" fill="none" xmlns="http://www.w3.org/2000/svg">
<g clip-path="url(#clip0_825_2155)">
<path d="M14.8939 16.5303V3.64551H24.2103V5.16602H16.599V9.1123H23.7269V10.624H16.599V15.0098H24.5092V16.5303H14.8939ZM25.6078 16.5303L29.0179 11.6787L25.8627 7.19629H27.8402L29.2728 9.38477C29.5424 9.80078 29.7592 10.1494 29.9232 10.4307C30.181 10.0439 30.4183 9.70117 30.6351 9.40234L32.2084 7.19629H34.098L30.8724 11.5908L34.3441 16.5303H32.4017L30.4857 13.6299L29.976 12.8477L27.5238 16.5303H25.6078ZM41.7533 13.1113L43.309 13.3135C43.139 14.3857 42.7025 15.2266 41.9994 15.8359C41.3021 16.4395 40.4437 16.7412 39.4242 16.7412C38.1469 16.7412 37.1185 16.3252 36.3392 15.4932C35.5658 14.6553 35.1791 13.457 35.1791 11.8984C35.1791 10.8906 35.3461 10.0088 35.6801 9.25293C36.014 8.49707 36.5209 7.93164 37.2006 7.55664C37.8861 7.17578 38.6302 6.98535 39.433 6.98535C40.4467 6.98535 41.2758 7.24316 41.9203 7.75879C42.5648 8.26855 42.9779 8.99512 43.1595 9.93848L41.6215 10.1758C41.475 9.54883 41.2142 9.07715 40.8392 8.76074C40.4701 8.44434 40.0219 8.28613 39.4945 8.28613C38.6976 8.28613 38.0502 8.57324 37.5521 9.14746C37.0541 9.71582 36.8051 10.6182 36.8051 11.8545C36.8051 13.1084 37.0453 14.0195 37.5258 14.5879C38.0062 15.1562 38.6332 15.4404 39.4066 15.4404C40.0277 15.4404 40.5463 15.25 40.9623 14.8691C41.3783 14.4883 41.642 13.9023 41.7533 13.1113ZM51.0521 13.5244L52.6869 13.7266C52.4291 14.6816 51.9515 15.4229 51.2543 15.9502C50.557 16.4775 49.6664 16.7412 48.5824 16.7412C47.2172 16.7412 46.1332 16.3223 45.3304 15.4844C44.5336 14.6406 44.1351 13.46 44.1351 11.9424C44.1351 10.3721 44.5394 9.15332 45.348 8.28613C46.1566 7.41895 47.2054 6.98535 48.4945 6.98535C49.7426 6.98535 50.7621 7.41016 51.5531 8.25977C52.3441 9.10938 52.7396 10.3047 52.7396 11.8457C52.7396 11.9395 52.7367 12.0801 52.7308 12.2676H45.7699C45.8285 13.293 46.1185 14.0781 46.64 14.623C47.1615 15.168 47.8119 15.4404 48.5912 15.4404C49.1713 15.4404 49.6664 15.2881 50.0765 14.9834C50.4867 14.6787 50.8119 14.1924 51.0521 13.5244ZM45.8578 10.9668H51.0697C50.9994 10.1816 50.8002 9.59277 50.472 9.2002C49.9681 8.59082 49.3148 8.28613 48.5121 8.28613C47.7855 8.28613 47.1732 8.5293 46.6752 9.01562C46.183 9.50195 45.9105 10.1523 45.8578 10.9668ZM54.6469 16.5303V3.64551H56.2289V16.5303H54.6469ZM58.6547 16.5303V3.64551H60.2367V16.5303H58.6547ZM69.0873 13.5244L70.722 13.7266C70.4642 14.6816 69.9867 15.4229 69.2894 15.9502C68.5922 16.4775 67.7015 16.7412 66.6176 16.7412C65.2523 16.7412 64.1683 16.3223 63.3656 15.4844C62.5687 14.6406 62.1703 13.46 62.1703 11.9424C62.1703 10.3721 62.5746 9.15332 63.3832 8.28613C64.1918 7.41895 65.2406 6.98535 66.5297 6.98535C67.7777 6.98535 68.7972 7.41016 69.5883 8.25977C70.3793 9.10938 70.7748 10.3047 70.7748 11.8457C70.7748 11.9395 70.7719 12.0801 70.766 12.2676H63.8051C63.8636 13.293 64.1537 14.0781 64.6752 14.623C65.1967 15.168 65.847 15.4404 66.6263 15.4404C67.2064 15.4404 67.7015 15.2881 68.1117 14.9834C68.5219 14.6787 68.847 14.1924 69.0873 13.5244ZM63.8929 10.9668H69.1049C69.0345 10.1816 68.8353 9.59277 68.5072 9.2002C68.0033 8.59082 67.35 8.28613 66.5472 8.28613C65.8207 8.28613 65.2084 8.5293 64.7103 9.01562C64.2181 9.50195 63.9457 10.1523 63.8929 10.9668ZM72.7172 16.5303V7.19629H74.141V8.52344C74.8265 7.49805 75.8168 6.98535 77.1117 6.98535C77.6742 6.98535 78.1898 7.08789 78.6586 7.29297C79.1332 7.49219 79.4877 7.75586 79.722 8.08398C79.9564 8.41211 80.1205 8.80176 80.2142 9.25293C80.2728 9.5459 80.3021 10.0586 80.3021 10.791V16.5303H78.7201V10.8525C78.7201 10.208 78.6586 9.72754 78.5355 9.41113C78.4125 9.08887 78.1927 8.83398 77.8763 8.64648C77.5658 8.45312 77.1996 8.35645 76.7777 8.35645C76.1039 8.35645 75.5209 8.57031 75.0287 8.99805C74.5424 9.42578 74.2992 10.2373 74.2992 11.4326V16.5303H72.7172ZM86.1908 15.1152L86.4193 16.5127C85.974 16.6064 85.5756 16.6533 85.224 16.6533C84.6498 16.6533 84.2045 16.5625 83.8881 16.3809C83.5717 16.1992 83.349 15.9619 83.2201 15.6689C83.0912 15.3701 83.0267 14.7461 83.0267 13.7969V8.42676H81.8666V7.19629H83.0267V4.88477L84.6 3.93555V7.19629H86.1908V8.42676H84.6V13.8848C84.6 14.3359 84.6263 14.626 84.6791 14.7549C84.7377 14.8838 84.8285 14.9863 84.9515 15.0625C85.0804 15.1387 85.2621 15.1768 85.4965 15.1768C85.6722 15.1768 85.9037 15.1562 86.1908 15.1152Z" fill="#191919"/>
<g clip-path="url(#clip1_825_2155)">
<path d="M102.449 20.7548H122.769V0.450195H102.449V20.7548Z" fill="#00B67A"/>
<path d="M119.772 9.08884L108.246 17.4549L109.928 12.2844L105.525 9.08884H110.967L112.648 3.91797L114.33 9.08884H119.772ZM112.649 14.2597L115.796 13.5981L117.051 17.4549L112.649 14.2597Z" fill="white"/>
<path d="M124.904 20.7548H145.225V0.450195H124.904V20.7548Z" fill="#00B67A"/>
<path d="M124.904 20.7548H135.065V0.450195H124.904V20.7548Z" fill="#00B67A"/>
<path d="M135.308 14.1806L138.007 13.5978L139.256 17.5421L135.023 14.3854L130.625 17.5421L132.332 12.3528L127.863 9.14571H133.386L135.093 3.95605L136.8 9.14571H142.323L135.308 14.1806Z" fill="white"/>
<path d="M147.376 20.7548H167.697V0.450195H147.376V20.7548Z" fill="#00B67A"/>
<path d="M147.376 20.7548H157.536V0.450195H147.376V20.7548Z" fill="#00B67A"/>
<path d="M164.699 9.08884L153.174 17.4549L154.855 12.2844L150.453 9.08884H155.895L157.576 3.91797L159.258 9.08884L164.699 9.08884ZM157.577 14.2597L160.724 13.5981L161.978 17.4549L157.577 14.2597Z" fill="white"/>
<path d="M169.847 20.7548H190.168V0.450195H169.847V20.7548Z" fill="#00B67A"/>
<path d="M169.847 20.7548H180.008V0.450195H169.847V20.7548Z" fill="#00B67A"/>
<path d="M187.17 9.08884L175.644 17.4549L177.326 12.2844L172.923 9.08884H178.365L180.046 3.91797L181.728 9.08884L187.17 9.08884ZM180.047 14.2597L183.195 13.5981L184.449 17.4549L180.047 14.2597Z" fill="white"/>
<path d="M192.303 20.7548H212.624V0.450195H192.303V20.7548Z" fill="#DCDCE6"/>
<path d="M192.303 20.7548H202.464V0.450195H192.303V20.7548Z" fill="#00B67A"/>
<path d="M209.626 9.08884L198.1 17.4549L199.782 12.2844L195.379 9.08884H200.821L202.503 3.91797L204.184 9.08884H209.626ZM202.503 14.2597L205.651 13.5981L206.905 17.4549L202.503 14.2597Z" fill="white"/>
</g>
<path d="M229.746 16.5503H228.516V8.70947C228.22 8.99202 227.83 9.27458 227.347 9.55713C226.868 9.83968 226.438 10.0516 226.055 10.1929V9.00342C226.743 8.67985 227.345 8.28792 227.86 7.82764C228.375 7.36735 228.739 6.92074 228.953 6.48779H229.746V16.5503ZM236.849 16.5503V14.1509H232.501V13.0229L237.074 6.52881H238.079V13.0229H239.433V14.1509H238.079V16.5503H236.849ZM236.849 13.0229V8.50439L233.711 13.0229H236.849ZM244.642 16.5503V14.1509H240.294V13.0229L244.867 6.52881H245.872V13.0229H247.226V14.1509H245.872V16.5503H244.642ZM244.642 13.0229V8.50439L241.504 13.0229H244.642Z" fill="#191919"/>
<path d="M252.68 16.5503V9.29053H253.787V10.3911C254.07 9.87614 254.33 9.53662 254.567 9.37256C254.808 9.2085 255.073 9.12646 255.36 9.12646C255.774 9.12646 256.196 9.25863 256.624 9.52295L256.2 10.6646C255.9 10.4868 255.599 10.3979 255.298 10.3979C255.029 10.3979 254.788 10.48 254.574 10.644C254.359 10.8035 254.207 11.0269 254.116 11.314C253.979 11.7515 253.91 12.23 253.91 12.7495V16.5503H252.68ZM262.325 14.2124L263.597 14.3696C263.396 15.1125 263.025 15.689 262.483 16.0991C261.94 16.5093 261.248 16.7144 260.405 16.7144C259.343 16.7144 258.5 16.3885 257.875 15.7368C257.256 15.0806 256.946 14.1623 256.946 12.9819C256.946 11.7606 257.26 10.8127 257.889 10.1382C258.518 9.4637 259.334 9.12646 260.336 9.12646C261.307 9.12646 262.1 9.45687 262.715 10.1177C263.33 10.7785 263.638 11.7082 263.638 12.9067C263.638 12.9797 263.636 13.089 263.631 13.2349H258.217C258.263 14.0324 258.488 14.6431 258.894 15.0669C259.299 15.4907 259.805 15.7026 260.411 15.7026C260.863 15.7026 261.248 15.5841 261.567 15.3472C261.886 15.1102 262.139 14.7319 262.325 14.2124ZM258.285 12.2231H262.339C262.284 11.6125 262.13 11.1545 261.874 10.8491C261.482 10.3752 260.974 10.1382 260.35 10.1382C259.785 10.1382 259.309 10.3273 258.921 10.7056C258.538 11.0838 258.326 11.5897 258.285 12.2231ZM267.165 16.5503L264.404 9.29053H265.702L267.261 13.6382C267.43 14.1076 267.585 14.5952 267.726 15.1011C267.835 14.7183 267.988 14.258 268.184 13.7202L269.797 9.29053H271.062L268.314 16.5503H267.165ZM272.156 7.94385V6.52881H273.386V7.94385H272.156ZM272.156 16.5503V9.29053H273.386V16.5503H272.156ZM280.236 14.2124L281.507 14.3696C281.307 15.1125 280.935 15.689 280.393 16.0991C279.851 16.5093 279.158 16.7144 278.315 16.7144C277.253 16.7144 276.41 16.3885 275.785 15.7368C275.166 15.0806 274.856 14.1623 274.856 12.9819C274.856 11.7606 275.17 10.8127 275.799 10.1382C276.428 9.4637 277.244 9.12646 278.246 9.12646C279.217 9.12646 280.01 9.45687 280.625 10.1177C281.241 10.7785 281.548 11.7082 281.548 12.9067C281.548 12.9797 281.546 13.089 281.541 13.2349H276.127C276.173 14.0324 276.398 14.6431 276.804 15.0669C277.21 15.4907 277.715 15.7026 278.322 15.7026C278.773 15.7026 279.158 15.5841 279.477 15.3472C279.796 15.1102 280.049 14.7319 280.236 14.2124ZM276.196 12.2231H280.249C280.195 11.6125 280.04 11.1545 279.784 10.8491C279.393 10.3752 278.884 10.1382 278.26 10.1382C277.695 10.1382 277.219 10.3273 276.831 10.7056C276.449 11.0838 276.237 11.5897 276.196 12.2231ZM284.399 16.5503L282.177 9.29053H283.449L284.604 13.481L285.034 15.0396C285.053 14.9621 285.178 14.4631 285.41 13.5425L286.566 9.29053H287.83L288.917 13.5015L289.28 14.8892L289.697 13.4878L290.941 9.29053H292.137L289.867 16.5503H288.589L287.434 12.2026L287.154 10.9653L285.684 16.5503H284.399ZM292.684 14.3833L293.901 14.1919C293.969 14.6795 294.158 15.0532 294.468 15.313C294.783 15.5728 295.22 15.7026 295.781 15.7026C296.346 15.7026 296.765 15.5887 297.038 15.3608C297.312 15.1284 297.449 14.8573 297.449 14.5474C297.449 14.2694 297.328 14.0506 297.086 13.8911C296.918 13.7817 296.498 13.6427 295.828 13.4741C294.926 13.2463 294.299 13.0503 293.949 12.8862C293.602 12.7176 293.338 12.4875 293.156 12.1958C292.978 11.8996 292.889 11.5737 292.889 11.2183C292.889 10.8947 292.962 10.5962 293.108 10.3228C293.258 10.0448 293.461 9.81462 293.716 9.63232C293.908 9.49105 294.167 9.37256 294.495 9.27686C294.828 9.1766 295.184 9.12646 295.562 9.12646C296.131 9.12646 296.631 9.2085 297.059 9.37256C297.492 9.53662 297.811 9.75993 298.016 10.0425C298.221 10.3205 298.362 10.6942 298.44 11.1636L297.237 11.3276C297.182 10.9539 297.022 10.6623 296.758 10.4526C296.498 10.243 296.129 10.1382 295.651 10.1382C295.086 10.1382 294.682 10.2316 294.441 10.4185C294.199 10.6053 294.078 10.8241 294.078 11.0747C294.078 11.2342 294.129 11.3778 294.229 11.5054C294.329 11.6375 294.486 11.7469 294.7 11.8335C294.824 11.8791 295.186 11.9839 295.787 12.1479C296.658 12.3804 297.264 12.5718 297.606 12.7222C297.952 12.868 298.223 13.0822 298.419 13.3647C298.615 13.6473 298.713 13.9982 298.713 14.4175C298.713 14.8276 298.592 15.215 298.351 15.5796C298.114 15.9396 297.77 16.2199 297.319 16.4204C296.867 16.6164 296.357 16.7144 295.787 16.7144C294.844 16.7144 294.124 16.5184 293.627 16.1265C293.135 15.7345 292.821 15.1535 292.684 14.3833ZM303.615 12.9204C303.615 11.576 303.988 10.5802 304.736 9.93311C305.36 9.39535 306.121 9.12646 307.019 9.12646C308.017 9.12646 308.833 9.45459 309.466 10.1108C310.1 10.7625 310.416 11.6649 310.416 12.8179C310.416 13.7521 310.275 14.4881 309.992 15.0259C309.714 15.5591 309.307 15.9738 308.769 16.27C308.236 16.5662 307.652 16.7144 307.019 16.7144C306.003 16.7144 305.18 16.3885 304.551 15.7368C303.927 15.0851 303.615 14.1463 303.615 12.9204ZM304.879 12.9204C304.879 13.8501 305.082 14.5474 305.488 15.0122C305.893 15.4725 306.404 15.7026 307.019 15.7026C307.63 15.7026 308.138 15.4702 308.543 15.0054C308.949 14.5405 309.152 13.8319 309.152 12.8794C309.152 11.9816 308.947 11.3026 308.536 10.8423C308.131 10.3774 307.625 10.145 307.019 10.145C306.404 10.145 305.893 10.3752 305.488 10.8354C305.082 11.2957 304.879 11.9907 304.879 12.9204ZM311.866 16.5503V9.29053H312.973V10.3228C313.506 9.52523 314.276 9.12646 315.284 9.12646C315.721 9.12646 316.122 9.20622 316.487 9.36572C316.856 9.52067 317.131 9.72575 317.314 9.98096C317.496 10.2362 317.624 10.5392 317.697 10.8901C317.742 11.118 317.765 11.5168 317.765 12.0864V16.5503H316.534V12.1343C316.534 11.633 316.487 11.2593 316.391 11.0132C316.295 10.7625 316.124 10.5643 315.878 10.4185C315.637 10.2681 315.352 10.1929 315.024 10.1929C314.5 10.1929 314.046 10.3592 313.663 10.6919C313.285 11.0246 313.096 11.6558 313.096 12.5854V16.5503H311.866Z" fill="#191919"/>
<g clip-path="url(#clip2_825_2155)">
<path d="M347.62 7.72412H355.707V9.22424H352.527V17.6572H350.779V9.22424H347.613V7.72412H347.62ZM355.361 10.465H356.856V11.853H356.884C356.933 11.6567 357.025 11.4674 357.159 11.2852C357.293 11.1029 357.455 10.9276 357.646 10.7804C357.836 10.6262 358.047 10.5071 358.28 10.4089C358.513 10.3178 358.752 10.2687 358.992 10.2687C359.175 10.2687 359.309 10.2757 359.38 10.2827C359.45 10.2897 359.521 10.3038 359.598 10.3108V11.8389C359.486 11.8179 359.373 11.8039 359.253 11.7899C359.133 11.7758 359.02 11.7688 358.908 11.7688C358.64 11.7688 358.386 11.8249 358.146 11.9301C357.906 12.0352 357.702 12.1964 357.526 12.3997C357.349 12.61 357.208 12.8624 357.103 13.1708C356.997 13.4793 356.948 13.8298 356.948 14.2293V17.6502H355.354V10.465L355.361 10.465ZM366.924 17.6572H365.358V16.6547H365.33C365.133 17.0193 364.844 17.3067 364.456 17.524C364.068 17.7413 363.673 17.8534 363.272 17.8534C362.32 17.8534 361.629 17.6221 361.206 17.1524C360.783 16.6828 360.571 15.9748 360.571 15.0284V10.465H362.165V14.8742C362.165 15.5051 362.285 15.9538 362.531 16.2131C362.771 16.4725 363.117 16.6057 363.554 16.6057C363.892 16.6057 364.167 16.5566 364.393 16.4515C364.618 16.3463 364.802 16.2131 364.935 16.0379C365.076 15.8696 365.175 15.6593 365.239 15.421C365.302 15.1827 365.33 14.9233 365.33 14.6429V10.472H366.924V17.6572ZM369.638 15.3509C369.687 15.8136 369.864 16.136 370.167 16.3253C370.477 16.5075 370.844 16.6057 371.274 16.6057C371.422 16.6057 371.591 16.5917 371.781 16.5706C371.972 16.5496 372.155 16.5005 372.317 16.4374C372.486 16.3743 372.62 16.2762 372.733 16.15C372.839 16.0239 372.888 15.8626 372.881 15.6593C372.874 15.4561 372.796 15.2878 372.655 15.1616C372.514 15.0284 372.338 14.9303 372.12 14.8462C371.901 14.7691 371.654 14.699 371.372 14.6429C371.09 14.5868 370.808 14.5237 370.519 14.4606C370.223 14.3976 369.934 14.3134 369.659 14.2223C369.384 14.1312 369.137 14.005 368.919 13.8438C368.7 13.6896 368.524 13.4863 368.397 13.2409C368.263 12.9956 368.2 12.6941 368.2 12.3296C368.2 11.9371 368.298 11.6146 368.489 11.3482C368.679 11.0819 368.926 10.8716 369.215 10.7103C369.511 10.5491 369.835 10.437 370.195 10.3669C370.554 10.3038 370.9 10.2687 371.224 10.2687C371.598 10.2687 371.957 10.3108 372.296 10.3879C372.634 10.465 372.945 10.5912 373.219 10.7734C373.494 10.9487 373.72 11.18 373.903 11.4604C374.087 11.7408 374.199 12.0843 374.249 12.4838H372.585C372.507 12.1053 372.338 11.8459 372.063 11.7198C371.788 11.5866 371.471 11.5235 371.118 11.5235C371.006 11.5235 370.872 11.5305 370.717 11.5515C370.562 11.5726 370.421 11.6076 370.28 11.6567C370.146 11.7057 370.033 11.7829 369.934 11.881C369.842 11.9791 369.793 12.1053 369.793 12.2665C369.793 12.4628 369.864 12.617 369.998 12.7362C370.131 12.8554 370.308 12.9535 370.526 13.0376C370.745 13.1147 370.992 13.1848 371.274 13.2409C371.556 13.297 371.845 13.3601 372.141 13.4232C372.43 13.4863 372.712 13.5704 372.994 13.6615C373.276 13.7526 373.523 13.8788 373.741 14.04C373.96 14.2013 374.136 14.3976 374.27 14.6359C374.404 14.8742 374.474 15.1757 374.474 15.5261C374.474 15.9538 374.376 16.3113 374.178 16.6127C373.981 16.9071 373.727 17.1524 373.417 17.3347C373.107 17.517 372.754 17.6572 372.373 17.7413C371.993 17.8254 371.612 17.8675 371.238 17.8675C370.78 17.8675 370.357 17.8184 369.969 17.7132C369.582 17.6081 369.243 17.4539 368.961 17.2506C368.679 17.0403 368.454 16.7809 368.291 16.4725C368.129 16.1641 368.045 15.7925 368.031 15.3649H369.638V15.3509ZM374.897 10.465H376.103V8.30594H377.696V10.465H379.135V11.6497H377.696V15.4911C377.696 15.6593 377.703 15.7995 377.718 15.9257C377.732 16.0449 377.767 16.15 377.816 16.2341C377.866 16.3183 377.943 16.3814 378.049 16.4234C378.155 16.4655 378.289 16.4865 378.472 16.4865C378.585 16.4865 378.697 16.4865 378.81 16.4795C378.923 16.4725 379.036 16.4585 379.149 16.4304V17.6572C378.972 17.6782 378.796 17.6922 378.634 17.7132C378.465 17.7343 378.296 17.7413 378.119 17.7413C377.696 17.7413 377.358 17.6992 377.104 17.6221C376.85 17.545 376.646 17.4258 376.505 17.2716C376.357 17.1174 376.265 16.9281 376.209 16.6968C376.159 16.4655 376.124 16.1991 376.117 15.9047V11.6637H374.912V10.465H374.897ZM380.263 10.465H381.771V11.4394H381.8C382.025 11.0188 382.335 10.7244 382.737 10.5421C383.139 10.3598 383.569 10.2687 384.042 10.2687C384.613 10.2687 385.106 10.3669 385.529 10.5701C385.952 10.7664 386.305 11.0398 386.587 11.3903C386.869 11.7408 387.073 12.1474 387.214 12.61C387.355 13.0727 387.426 13.5704 387.426 14.0961C387.426 14.5798 387.362 15.0495 387.235 15.4981C387.108 15.9538 386.918 16.3533 386.664 16.7038C386.41 17.0543 386.086 17.3277 385.691 17.538C385.296 17.7483 384.838 17.8534 384.302 17.8534C384.07 17.8534 383.837 17.8324 383.604 17.7903C383.372 17.7483 383.146 17.6782 382.935 17.5871C382.723 17.4959 382.519 17.3768 382.342 17.2296C382.159 17.0823 382.011 16.9141 381.884 16.7248H381.856V20.3139H380.263V10.465ZM385.832 14.0681C385.832 13.7456 385.79 13.4302 385.705 13.1218C385.621 12.8133 385.494 12.5469 385.325 12.3086C385.155 12.0703 384.944 11.881 384.697 11.7408C384.443 11.6006 384.154 11.5235 383.83 11.5235C383.16 11.5235 382.653 11.7548 382.314 12.2175C381.976 12.6801 381.807 13.297 381.807 14.0681C381.807 14.4326 381.849 14.7691 381.941 15.0775C382.032 15.386 382.159 15.6523 382.342 15.8766C382.519 16.101 382.73 16.2762 382.977 16.4024C383.224 16.5356 383.513 16.5987 383.837 16.5987C384.204 16.5987 384.507 16.5216 384.761 16.3743C385.014 16.2271 385.219 16.0309 385.381 15.7995C385.543 15.5612 385.663 15.2948 385.734 14.9934C385.797 14.692 385.832 14.3835 385.832 14.0681ZM388.645 7.72412H390.239V9.22424H388.645V7.72412ZM388.645 10.465H390.239V17.6572H388.645V10.465ZM391.663 7.72412H393.256V17.6572H391.663V7.72412ZM398.142 17.8534C397.564 17.8534 397.049 17.7553 396.598 17.566C396.147 17.3768 395.766 17.1104 395.449 16.7809C395.139 16.4444 394.899 16.0449 394.737 15.5822C394.575 15.1196 394.49 14.6079 394.49 14.0541C394.49 13.5073 394.575 13.0026 394.737 12.5399C394.899 12.0773 395.139 11.6777 395.449 11.3412C395.759 11.0048 396.147 10.7454 396.598 10.5561C397.049 10.3669 397.564 10.2687 398.142 10.2687C398.72 10.2687 399.235 10.3669 399.686 10.5561C400.137 10.7454 400.518 11.0118 400.835 11.3412C401.145 11.6777 401.385 12.0773 401.547 12.5399C401.709 13.0026 401.794 13.5073 401.794 14.0541C401.794 14.6079 401.709 15.1196 401.547 15.5822C401.385 16.0449 401.145 16.4444 400.835 16.7809C400.525 17.1174 400.137 17.3768 399.686 17.566C399.235 17.7553 398.72 17.8534 398.142 17.8534ZM398.142 16.5987C398.494 16.5987 398.805 16.5216 399.066 16.3743C399.326 16.2271 399.538 16.0309 399.707 15.7925C399.876 15.5542 399.996 15.2808 400.081 14.9794C400.158 14.678 400.201 14.3695 400.201 14.0541C400.201 13.7456 400.158 13.4442 400.081 13.1358C400.003 12.8273 399.876 12.561 399.707 12.3226C399.538 12.0843 399.326 11.895 399.066 11.7478C398.805 11.6006 398.494 11.5235 398.142 11.5235C397.789 11.5235 397.479 11.6006 397.218 11.7478C396.958 11.895 396.746 12.0913 396.577 12.3226C396.408 12.561 396.288 12.8273 396.203 13.1358C396.126 13.4442 396.083 13.7456 396.083 14.0541C396.083 14.3695 396.126 14.678 396.203 14.9794C396.281 15.2808 396.408 15.5542 396.577 15.7925C396.746 16.0309 396.958 16.2271 397.218 16.3743C397.479 16.5286 397.789 16.5987 398.142 16.5987ZM402.259 10.465H403.465V8.30594H405.058V10.465H406.496V11.6497H405.058V15.4911C405.058 15.6593 405.065 15.7995 405.079 15.9257C405.094 16.0449 405.129 16.15 405.178 16.2341C405.227 16.3183 405.305 16.3814 405.411 16.4234C405.517 16.4655 405.65 16.4865 405.834 16.4865C405.947 16.4865 406.059 16.4865 406.172 16.4795C406.285 16.4725 406.398 16.4585 406.511 16.4304V17.6572C406.334 17.6782 406.158 17.6922 405.996 17.7132C405.827 17.7343 405.658 17.7413 405.481 17.7413C405.058 17.7413 404.72 17.6992 404.466 17.6221C404.212 17.545 404.008 17.4258 403.867 17.2716C403.719 17.1174 403.627 16.9281 403.571 16.6968C403.521 16.4655 403.486 16.1991 403.479 15.9047V11.6637H402.273V10.465L402.259 10.465Z" fill="#191919"/>
<path d="M345.759 7.72427H338.455L336.199 0.8125L333.936 7.72427L326.632 7.71726L332.547 11.9933L330.284 18.8981L336.199 14.629L342.107 18.8981L339.851 11.9933L345.759 7.72427Z" fill="#00B67A"/>
<path d="M340.358 13.5565L339.851 11.9932L336.199 14.6291L340.358 13.5565Z" fill="#005128"/>
</g>
</g>
<defs>
<clipPath id="clip0_825_2155">
<rect width="420" height="20" fill="white" transform="translate(0 0.450195)"/>
</clipPath>
<clipPath id="clip1_825_2155">
<rect width="110" height="20.16" fill="white" transform="translate(102.44 0.450195)"/>
</clipPath>
<clipPath id="clip2_825_2155">
<rect width="80" height="19.67" fill="white" transform="translate(326.61 0.700195)"/>
</clipPath>
</defs>
</svg>
