<svg width="173" height="223" viewBox="0 0 173 223" fill="none" xmlns="http://www.w3.org/2000/svg">
<path fill-rule="evenodd" clip-rule="evenodd" d="M99.3358 0C111.387 0 121.157 9.75453 121.157 21.7874V73.0517C121.157 85.0845 111.387 94.8391 99.3358 94.8391H47.9925C45.868 94.8391 44.1418 96.5626 44.1418 98.6839C44.1418 100.805 45.868 102.529 47.9925 102.529H99.839C139.684 102.529 172.053 134.639 172.325 174.417V174.419L172.505 201.066C172.586 213.098 162.882 222.919 150.831 223C138.78 223.081 128.945 213.392 128.864 201.359L128.684 174.714V174.712C128.575 158.879 115.691 146.103 99.839 146.103H47.9925C21.7653 146.103 0.5 124.871 0.5 98.6839C0.5 72.497 21.7653 51.2644 47.9925 51.2644H77.5149V21.7874C77.5149 9.75453 87.2845 0 99.3358 0Z" fill="#9CC1FF"/>
</svg>
